<?xml version="1.0" encoding="utf-8"?>
<!-- Generator: Adobe Illustrator 23.0.0, SVG Export Plug-In . SVG Version: 6.00 Build 0)  -->
<svg version="1.1" id="Layer_1" xmlns="http://www.w3.org/2000/svg" xmlns:xlink="http://www.w3.org/1999/xlink" x="0px" y="0px"
	 viewBox="0 0 1440 870" style="enable-background:new 0 0 1440 870;" xml:space="preserve">
<style type="text/css">
	.st0{clip-path:url(#SVGID_2_);}
	.st1{fill:none;}
	.st2{opacity:0.55;}
	.st3{opacity:0.5;}
	.st4{fill:none;stroke:#7EBC89;stroke-width:8;}
	.st5{opacity:0.66;}
	.st6{fill:#C42021;}
	.st7{opacity:0.56;}
	.st8{opacity:0.3;}
	.st9{fill:none;stroke:#7EBC89;stroke-width:5.37;}
	.st10{fill:none;stroke:#7EBC89;stroke-width:30.65;}
	.st11{opacity:0.71;fill:#C42021;enable-background:new    ;}
</style>
<title>Artboard 1</title>
<g>
	<defs>
		<rect id="SVGID_1_" x="1" width="1440" height="870"/>
	</defs>
	<clipPath id="SVGID_2_">
		<use xlink:href="#SVGID_1_"  style="overflow:visible;"/>
	</clipPath>
	<g class="st0">
		<g id="home---0621---v1-copy-6">
			<polygon id="Rectangle-4-Copy-7" class="st1" points="1,0 1441,0 1441,870 1,870 			"/>
			<g id="Artboard-3" class="st2">
				<g id="Group" class="st3">
					<path id="Path" class="st4" d="M1502.4,128.7l-66.2-0.8c-42.1,0-76.2-32.4-76.2-72.4V-6.2"/>
					<path class="st4" d="M1502.3,115.5l-66.2-0.7c-34.4,0-62.2-26.5-62.2-59.2V-6.3"/>
					<path class="st4" d="M1502.3,102.2l-66.3-0.5c-26.7,0-48.3-20.6-48.3-46V-6.4"/>
					<path class="st4" d="M1502.2,89l-66.3-0.3c-19,0-34.4-14.7-34.4-32.7V-6.4"/>
					<path class="st4" d="M1502.2,75.8l-66.4-0.2c-11.3,0-20.5-8.7-20.5-19.5V-6.4"/>
					<path class="st4" d="M1502.2,62.5h-66.4c-3.5,0.1-6.5-2.7-6.6-6.2c0,0,0,0,0,0V-6.5"/>
				</g>
				<g class="st5">
					<path class="st6" d="M1500.3,321.5c-0.4,44-1.8,79.3-3,78.4l-69-45.7l-51.2-33.9c-36.7-24.3-41.2-59-9.9-77.1
						s27.4-53.7-8.4-79.2L1191.1,45c-35.9-25.5-29.2-46.8,14.8-47.4l217.3-3c43.1-0.7,78.6,33.7,79.3,76.9c0,0.7,0,1.4,0,2
						L1500.3,321.5z"/>
				</g>
			</g>
			<g id="Artboard-2" class="st7">
				<g class="st8">
					<g id="Oval">
						<circle class="st9" cx="-94.6" cy="429.4" r="234.2"/>
						<circle class="st9" cx="-94.6" cy="429.4" r="222.4"/>
						<circle class="st9" cx="-94.6" cy="429.4" r="210.7"/>
						<circle class="st9" cx="-94.6" cy="429.4" r="199"/>
						<circle class="st10" cx="-94.6" cy="429.4" r="175.5"/>
						<circle class="st9" cx="-94.6" cy="429.4" r="152.1"/>
						<circle class="st9" cx="-94.6" cy="429.4" r="140.3"/>
						<circle class="st9" cx="-94.6" cy="429.4" r="128.6"/>
						<circle class="st9" cx="-94.6" cy="429.4" r="116.9"/>
						<circle class="st9" cx="-94.6" cy="429.4" r="105.2"/>
					</g>
				</g>
				<path class="st11" d="M21.2,153.9l216,140.6c34,22.2,32.8,72.5-2.3,92.9L71.3,482.7c-33,19.2-36.5,65.5-6.9,89.6l0,0
					c29.6,24,26.1,70.2-6.7,89.5l-38.5,22.6c-36.4,21.4-82.2-4.9-82.2-47.1V199.6C-63,156.3-15,130.3,21.2,153.9z"/>
			</g>
		</g>
	</g>
</g>
</svg>
